<svg xmlns="http://www.w3.org/2000/svg" viewBox="0 0 120 120" fill="none" stroke="#3A5F3A" stroke-width="2.6" stroke-linecap="round" stroke-linejoin="round"><path d="M74 34c0-5 4-8 7-8 5 0 8 4 7 9-1 4-5 6-9 5-3-1-5-3-5-6Z"/><path d="M81 18c0 1.6 0 2.6 0 3.6"/><path d="M94 30c-1.4.4-2.2.6-3 1"/><path d="M92 44c-1-.6-1.6-1-2.4-1.6"/><path d="M16 80c8-7 18-7 28 0"/><path d="M68 82c8-7 18-7 30 0"/><path d="M22 88c18-1 48 1 76 0"/><path d="M60 88c.6-10-.4-22 0-32"/><path d="M60 66c-2-7-8-13-18-14 0 8 7 15 18 14Z"/><path d="M60 60c2-7 8-12 17-13 0 8-7 14-17 13Z"/><path d="M60 88c-3 3-6 4-10 4"/><path d="M60 88c3 3 6 4 10 4"/></svg>
