<svg xmlns="http://www.w3.org/2000/svg" viewBox="0 0 120 120" fill="none" stroke="#3A5F3A" stroke-width="2.4" stroke-linecap="round" stroke-linejoin="round"><path d="M73 33c0-4.5 3.6-7.5 7-7.5 4.5 0 7.5 3.8 6.8 8.3-.6 3.7-4.3 5.6-8 4.7-3-.8-5.8-2.6-5.8-5.5Z"/><path d="M80 17v3.4M94 31l-3 1M92 45l-2.6-1.6"/><path d="M16 80c9-8 19-8 29 0"/><path d="M69 82c9-8 19-8 30 0"/><path d="M22 88c18-1 50 1 76 0"/><path d="M60 88c.5-10-.4-22 0-32"/><path d="M60 66c-2-7-9-12-18-13 0 8 7 14 18 13Z"/><path d="M60 60c2-7 8-11 17-12 0 8-7 13-17 12Z"/></svg>
