<svg xmlns="http://www.w3.org/2000/svg" viewBox="0 0 24 24" fill="none" stroke="#3A5F3A" stroke-width="1.4" stroke-linecap="round" stroke-linejoin="round"><path d="M2.4 11.8C6 8.6 9 6 12 3.5c3.4 2.5 6.5 5.1 9.7 8.1"/><path d="M3.1 11C6.5 8 9.4 5.6 12 3.4c3.1 2.7 6.1 5.4 9.1 8.1"/><path d="M5.2 10c-.5 3.1-.3 6.2 0 9.3 3.9.5 10 .4 13.8 0 .4-3.1.5-6.2.1-9.2"/><path d="M4.6 10.5c-.4 3-.2 6 .1 9 3.9.6 9.8.5 13.6.1.4-2.9.5-5.9.2-8.8"/><path d="M9.6 19.3c-.2-2.2 0-3.9.2-5.3 1.5-.4 3-.3 4.5-.1.2 1.6.1 3.3 0 5.1"/></svg>
