<svg xmlns="http://www.w3.org/2000/svg" viewBox="0 0 24 24" fill="none" stroke="#3A5F3A" stroke-width="2" stroke-linecap="round" stroke-linejoin="round"><path d="M12 8c2.3-.2 4.2 1.7 4 4-.2 2.2-2 4.2-4.2 4-2.2-.2-3.9-2-3.8-4.2C8.2 9.8 10 8.2 12 8Z"/><path d="M12 2.6c-.1 1 0 1.8 0 2.6"/><path d="M12 18.9c-.1 1 0 1.8 0 2.6"/><path d="M2.6 12c1-.1 1.8 0 2.6 0"/><path d="M18.9 12c1-.1 1.8 0 2.6 0"/><path d="M5.2 5.2c.8.6 1.3 1.1 1.8 1.7"/><path d="M17.1 17.1c.8.6 1.3 1.1 1.8 1.7"/><path d="M18.8 5.2c-.6.8-1.1 1.3-1.7 1.8"/><path d="M6.9 17.1c-.6.8-1.1 1.3-1.7 1.8"/></svg>
