<svg xmlns="http://www.w3.org/2000/svg" viewBox="0 0 24 24" fill="none" stroke="#3A5F3A" stroke-width="1.4" stroke-linecap="round" stroke-linejoin="round"><path d="M3.6 8c4.3-.3 12.4.1 16.8 0"/><path d="M3.7 7.3c4.3-.2 12.3.1 16.6 0"/><path d="M3.6 16c4.3-.3 12.4.1 16.8 0"/><path d="M3.7 15.3c4.3-.2 12.3.1 16.6 0"/><path d="M7.1 5.8c2.5-.2 4.3 1 4.2 2.2 0 1.3-1.8 2.3-4 2.1C5.4 9.9 5 8.4 5.2 7.9c.2-1.2.9-1.9 1.9-2.1Z"/><path d="M15.1 13.8c2.5-.2 4.3 1 4.2 2.2 0 1.3-1.8 2.3-4 2.1-1.9-.2-2.3-1.7-2.1-2.2.2-1.2.9-1.9 1.9-2.1Z"/></svg>
